<mxfile modified="2024-07-16T10:05:30.950Z" host="app.diagrams.net" agent="Mozilla/5.0 (Macintosh; Intel Mac OS X 10_15_7) AppleWebKit/537.36 (KHTML, like Gecko) Chrome/126.0.0.0 Safari/537.36" etag="qzaFmNAqE0dVt5BTnJGI" version="24.6.5" type="github">
  <diagram id="oN_dZjyq7tLWCpyC6PZo" name="Page-3">
    <mxGraphModel dx="2854" dy="494" grid="1" gridSize="10" guides="1" tooltips="1" connect="1" arrows="1" fold="1" page="1" pageScale="1" pageWidth="850" pageHeight="1100" math="0" shadow="0">
      <root>
        <mxCell id="0" />
        <mxCell id="1" parent="0" />
        <mxCell id="nvhKP5HM8xwmb2Cr7Fva-1" value="AWS Cloud" style="points=[[0,0],[0.25,0],[0.5,0],[0.75,0],[1,0],[1,0.25],[1,0.5],[1,0.75],[1,1],[0.75,1],[0.5,1],[0.25,1],[0,1],[0,0.75],[0,0.5],[0,0.25]];outlineConnect=0;gradientColor=none;html=1;whiteSpace=wrap;fontSize=12;fontStyle=0;shape=mxgraph.aws4.group;grIcon=mxgraph.aws4.group_aws_cloud_alt;strokeColor=#232F3E;fillColor=none;verticalAlign=top;align=left;spacingLeft=30;fontColor=#232F3E;dashed=0;labelBackgroundColor=none;container=1;pointerEvents=0;collapsible=0;recursiveResize=0;" vertex="1" parent="1">
          <mxGeometry x="-697" y="88" width="1007" height="622" as="geometry" />
        </mxCell>
        <mxCell id="2ERiE-DVfAWmRAEf4H8A-1" value="" style="sketch=0;points=[[0,0,0],[0.25,0,0],[0.5,0,0],[0.75,0,0],[1,0,0],[0,1,0],[0.25,1,0],[0.5,1,0],[0.75,1,0],[1,1,0],[0,0.25,0],[0,0.5,0],[0,0.75,0],[1,0.25,0],[1,0.5,0],[1,0.75,0]];outlineConnect=0;fontColor=#232F3E;fillColor=#8C4FFF;strokeColor=#ffffff;dashed=0;verticalLabelPosition=bottom;verticalAlign=top;align=center;html=1;fontSize=12;fontStyle=0;aspect=fixed;shape=mxgraph.aws4.resourceIcon;resIcon=mxgraph.aws4.route_53;" vertex="1" parent="nvhKP5HM8xwmb2Cr7Fva-1">
          <mxGeometry x="139" y="255" width="78" height="78" as="geometry" />
        </mxCell>
        <mxCell id="nvhKP5HM8xwmb2Cr7Fva-65" value="Amazon S3" style="outlineConnect=0;fontColor=#232F3E;gradientColor=#60A337;gradientDirection=north;fillColor=#277116;strokeColor=#ffffff;dashed=0;verticalLabelPosition=bottom;verticalAlign=top;align=center;html=1;fontSize=12;fontStyle=0;aspect=fixed;shape=mxgraph.aws4.resourceIcon;resIcon=mxgraph.aws4.s3;labelBackgroundColor=none;" vertex="1" parent="nvhKP5HM8xwmb2Cr7Fva-1">
          <mxGeometry x="330" y="22.5" width="78" height="78" as="geometry" />
        </mxCell>
        <mxCell id="nvhKP5HM8xwmb2Cr7Fva-62" value="1" style="rounded=1;whiteSpace=wrap;html=1;fillColor=#007CBD;strokeColor=none;fontColor=#FFFFFF;fontStyle=1;fontSize=22;labelBackgroundColor=none;arcSize=0;" vertex="1" parent="nvhKP5HM8xwmb2Cr7Fva-1">
          <mxGeometry x="107" y="305" width="40" height="38" as="geometry" />
        </mxCell>
        <mxCell id="2ERiE-DVfAWmRAEf4H8A-4" value="2" style="rounded=1;whiteSpace=wrap;html=1;fillColor=#007CBD;strokeColor=none;fontColor=#FFFFFF;fontStyle=1;fontSize=22;labelBackgroundColor=none;" vertex="1" parent="nvhKP5HM8xwmb2Cr7Fva-1">
          <mxGeometry x="237" y="225" width="40" height="38" as="geometry" />
        </mxCell>
        <mxCell id="ofdgv1xV2ZphtMdpXVPZ-7" style="edgeStyle=orthogonalEdgeStyle;rounded=0;orthogonalLoop=1;jettySize=auto;html=1;exitX=0.75;exitY=0;exitDx=0;exitDy=0;exitPerimeter=0;" edge="1" parent="nvhKP5HM8xwmb2Cr7Fva-1" source="ofdgv1xV2ZphtMdpXVPZ-1" target="nvhKP5HM8xwmb2Cr7Fva-65">
          <mxGeometry relative="1" as="geometry">
            <Array as="points">
              <mxPoint x="369" y="255" />
            </Array>
          </mxGeometry>
        </mxCell>
        <mxCell id="ofdgv1xV2ZphtMdpXVPZ-1" value="" style="sketch=0;points=[[0,0,0],[0.25,0,0],[0.5,0,0],[0.75,0,0],[1,0,0],[0,1,0],[0.25,1,0],[0.5,1,0],[0.75,1,0],[1,1,0],[0,0.25,0],[0,0.5,0],[0,0.75,0],[1,0.25,0],[1,0.5,0],[1,0.75,0]];outlineConnect=0;fontColor=#232F3E;fillColor=#DD344C;strokeColor=#ffffff;dashed=0;verticalLabelPosition=bottom;verticalAlign=top;align=center;html=1;fontSize=12;fontStyle=0;aspect=fixed;shape=mxgraph.aws4.resourceIcon;resIcon=mxgraph.aws4.amplify;" vertex="1" parent="nvhKP5HM8xwmb2Cr7Fva-1">
          <mxGeometry x="267" y="255" width="78" height="78" as="geometry" />
        </mxCell>
        <mxCell id="ofdgv1xV2ZphtMdpXVPZ-2" value="" style="edgeStyle=orthogonalEdgeStyle;html=1;endArrow=block;elbow=vertical;startArrow=block;startFill=1;endFill=1;strokeColor=#545B64;rounded=0;" edge="1" parent="nvhKP5HM8xwmb2Cr7Fva-1">
          <mxGeometry width="100" relative="1" as="geometry">
            <mxPoint x="217" y="295" as="sourcePoint" />
            <mxPoint x="267" y="295" as="targetPoint" />
          </mxGeometry>
        </mxCell>
        <mxCell id="nvhKP5HM8xwmb2Cr7Fva-63" value="4" style="rounded=1;whiteSpace=wrap;html=1;fillColor=#007CBD;strokeColor=none;fontColor=#FFFFFF;fontStyle=1;fontSize=22;labelBackgroundColor=none;" vertex="1" parent="nvhKP5HM8xwmb2Cr7Fva-1">
          <mxGeometry x="408" y="95" width="40" height="38" as="geometry" />
        </mxCell>
        <mxCell id="c7yBR3n4T7XLjnJSdbYd-3" value="&lt;div style=&quot;text-align: center;&quot;&gt;&lt;font color=&quot;#232f3e&quot;&gt;&lt;span style=&quot;text-wrap: nowrap; background-color: rgb(255, 255, 255);&quot;&gt;Amplify&lt;/span&gt;&lt;/font&gt;&lt;/div&gt;" style="text;whiteSpace=wrap;html=1;" vertex="1" parent="nvhKP5HM8xwmb2Cr7Fva-1">
          <mxGeometry x="289.5" y="333" width="33" height="27" as="geometry" />
        </mxCell>
        <mxCell id="c7yBR3n4T7XLjnJSdbYd-4" value="&lt;div style=&quot;text-align: center;&quot;&gt;&lt;font color=&quot;#232f3e&quot;&gt;&lt;span style=&quot;text-wrap: nowrap; background-color: rgb(255, 255, 255);&quot;&gt;Route53&lt;/span&gt;&lt;/font&gt;&lt;/div&gt;" style="text;whiteSpace=wrap;html=1;" vertex="1" parent="nvhKP5HM8xwmb2Cr7Fva-1">
          <mxGeometry x="157" y="333" width="33" height="40" as="geometry" />
        </mxCell>
        <mxCell id="nvhKP5HM8xwmb2Cr7Fva-104" value="" style="group" vertex="1" connectable="0" parent="nvhKP5HM8xwmb2Cr7Fva-1">
          <mxGeometry x="-9.999999999999943" y="495" width="21" height="26" as="geometry" />
        </mxCell>
        <mxCell id="nvhKP5HM8xwmb2Cr7Fva-105" value="" style="rounded=0;whiteSpace=wrap;html=1;labelBackgroundColor=#ffffff;fontSize=14;align=center;strokeColor=none;" vertex="1" parent="nvhKP5HM8xwmb2Cr7Fva-104">
          <mxGeometry width="21" height="26" as="geometry" />
        </mxCell>
        <mxCell id="nvhKP5HM8xwmb2Cr7Fva-106" value="" style="outlineConnect=0;fontColor=#232F3E;gradientColor=none;fillColor=#B3B3B3;strokeColor=none;dashed=0;verticalLabelPosition=bottom;verticalAlign=top;align=center;html=1;fontSize=12;fontStyle=0;aspect=fixed;pointerEvents=1;shape=mxgraph.aws4.encrypted_data;labelBackgroundColor=#ffffff;" vertex="1" parent="nvhKP5HM8xwmb2Cr7Fva-104">
          <mxGeometry width="21" height="26" as="geometry" />
        </mxCell>
        <UserObject label="&lt;meta charset=&quot;utf-8&quot;&gt;&lt;p style=&quot;forced-color-adjust: none; white-space-collapse: preserve; margin: 0px; line-height: 1px;&quot;&gt;&lt;span style=&quot;forced-color-adjust: none; font-family: &amp;quot;Microsoft YaHei&amp;quot;; color: rgb(25, 25, 25);&quot;&gt;&lt;font style=&quot;forced-color-adjust: none; font-size: 18px;&quot;&gt;&lt;br class=&quot;Apple-interchange-newline&quot;&gt;&lt;br style=&quot;forced-color-adjust: none;&quot;&gt;&lt;/font&gt;&lt;/span&gt;&lt;/p&gt;&lt;p style=&quot;forced-color-adjust: none; white-space-collapse: preserve; margin: 0px; line-height: 1px;&quot;&gt;&lt;span style=&quot;forced-color-adjust: none; font-family: &amp;quot;Microsoft YaHei&amp;quot;; color: rgb(25, 25, 25);&quot;&gt;&lt;font style=&quot;forced-color-adjust: none; font-size: 18px;&quot;&gt;&lt;br style=&quot;forced-color-adjust: none;&quot;&gt;&lt;/font&gt;&lt;/span&gt;&lt;/p&gt;&lt;p style=&quot;forced-color-adjust: none; white-space-collapse: preserve; margin: 0px; line-height: 1px;&quot;&gt;&lt;span style=&quot;forced-color-adjust: none; font-family: &amp;quot;Microsoft YaHei&amp;quot;; color: rgb(25, 25, 25);&quot;&gt;&lt;font style=&quot;forced-color-adjust: none; font-size: 18px;&quot;&gt;&lt;br style=&quot;forced-color-adjust: none;&quot;&gt;&lt;/font&gt;&lt;/span&gt;&lt;/p&gt;&lt;p style=&quot;forced-color-adjust: none; white-space-collapse: preserve; margin: 0px; line-height: 1px;&quot;&gt;&lt;span style=&quot;forced-color-adjust: none; font-family: &amp;quot;Microsoft YaHei&amp;quot;; color: rgb(25, 25, 25);&quot;&gt;&lt;font style=&quot;forced-color-adjust: none; font-size: 18px;&quot;&gt;&lt;br style=&quot;forced-color-adjust: none;&quot;&gt;&lt;/font&gt;&lt;/span&gt;&lt;/p&gt;&lt;p style=&quot;forced-color-adjust: none; white-space-collapse: preserve; margin: 0px; line-height: 1px;&quot;&gt;&lt;span style=&quot;forced-color-adjust: none; font-family: &amp;quot;Microsoft YaHei&amp;quot;; color: rgb(25, 25, 25);&quot;&gt;&lt;font style=&quot;forced-color-adjust: none; font-size: 18px;&quot;&gt;https://portal.activate.dev&lt;/font&gt;&lt;/span&gt;&lt;/p&gt;&lt;p style=&quot;forced-color-adjust: none; white-space-collapse: preserve; margin: 0px; line-height: 16px; font-family: &amp;quot;Microsoft YaHei&amp;quot;; font-size: 12pt;&quot;&gt;&lt;br style=&quot;forced-color-adjust: none; color: rgb(0, 0, 0); font-family: &amp;quot;Microsoft YaHei&amp;quot;; font-size: 16px; font-style: normal; font-variant-ligatures: normal; font-variant-caps: normal; font-weight: 400; letter-spacing: normal; orphans: 2; text-align: left; text-indent: 0px; text-transform: none; widows: 2; word-spacing: 0px; -webkit-text-stroke-width: 0px; white-space: pre-wrap; background-color: rgb(251, 251, 251); text-decoration-thickness: initial; text-decoration-style: initial; text-decoration-color: initial;&quot;&gt;&lt;/p&gt;" link="&lt;meta charset=&quot;utf-8&quot;&gt;&lt;p style=&quot;forced-color-adjust: none; white-space-collapse: preserve; margin: 0px; line-height: 1px;&quot;&gt;&lt;span style=&quot;forced-color-adjust: none; font-family: &amp;quot;Microsoft YaHei&amp;quot;; color: rgb(25, 25, 25);&quot;&gt;&lt;font style=&quot;forced-color-adjust: none; font-size: 18px;&quot;&gt;&lt;br class=&quot;Apple-interchange-newline&quot;&gt;&lt;br style=&quot;forced-color-adjust: none;&quot;&gt;&lt;/font&gt;&lt;/span&gt;&lt;/p&gt;&lt;p style=&quot;forced-color-adjust: none; white-space-collapse: preserve; margin: 0px; line-height: 1px;&quot;&gt;&lt;span style=&quot;forced-color-adjust: none; font-family: &amp;quot;Microsoft YaHei&amp;quot;; color: rgb(25, 25, 25);&quot;&gt;&lt;font style=&quot;forced-color-adjust: none; font-size: 18px;&quot;&gt;&lt;br style=&quot;forced-color-adjust: none;&quot;&gt;&lt;/font&gt;&lt;/span&gt;&lt;/p&gt;&lt;p style=&quot;forced-color-adjust: none; white-space-collapse: preserve; margin: 0px; line-height: 1px;&quot;&gt;&lt;span style=&quot;forced-color-adjust: none; font-family: &amp;quot;Microsoft YaHei&amp;quot;; color: rgb(25, 25, 25);&quot;&gt;&lt;font style=&quot;forced-color-adjust: none; font-size: 18px;&quot;&gt;&lt;br style=&quot;forced-color-adjust: none;&quot;&gt;&lt;/font&gt;&lt;/span&gt;&lt;/p&gt;&lt;p style=&quot;forced-color-adjust: none; white-space-collapse: preserve; margin: 0px; line-height: 1px;&quot;&gt;&lt;span style=&quot;forced-color-adjust: none; font-family: &amp;quot;Microsoft YaHei&amp;quot;; color: rgb(25, 25, 25);&quot;&gt;&lt;font style=&quot;forced-color-adjust: none; font-size: 18px;&quot;&gt;&lt;br style=&quot;forced-color-adjust: none;&quot;&gt;&lt;/font&gt;&lt;/span&gt;&lt;/p&gt;&lt;p style=&quot;forced-color-adjust: none; white-space-collapse: preserve; margin: 0px; line-height: 1px;&quot;&gt;&lt;span style=&quot;forced-color-adjust: none; font-family: &amp;quot;Microsoft YaHei&amp;quot;; color: rgb(25, 25, 25);&quot;&gt;&lt;font style=&quot;forced-color-adjust: none; font-size: 18px;&quot;&gt;https://portal.activate.dev&lt;/font&gt;&lt;/span&gt;&lt;/p&gt;&lt;p style=&quot;forced-color-adjust: none; white-space-collapse: preserve; margin: 0px; line-height: 16px; font-family: &amp;quot;Microsoft YaHei&amp;quot;; font-size: 12pt;&quot;&gt;&lt;br style=&quot;forced-color-adjust: none; color: rgb(0, 0, 0); font-family: &amp;quot;Microsoft YaHei&amp;quot;; font-size: 16px; font-style: normal; font-variant-ligatures: normal; font-variant-caps: normal; font-weight: 400; letter-spacing: normal; orphans: 2; text-align: left; text-indent: 0px; text-transform: none; widows: 2; word-spacing: 0px; -webkit-text-stroke-width: 0px; white-space: pre-wrap; background-color: rgb(251, 251, 251); text-decoration-thickness: initial; text-decoration-style: initial; text-decoration-color: initial;&quot;&gt;&lt;/p&gt;" id="2ERiE-DVfAWmRAEf4H8A-10">
          <mxCell style="edgeStyle=orthogonalEdgeStyle;html=1;endArrow=block;elbow=vertical;startArrow=block;startFill=1;endFill=1;strokeColor=#545B64;rounded=0;entryX=0.606;entryY=0.55;entryDx=0;entryDy=0;entryPerimeter=0;" edge="1" parent="nvhKP5HM8xwmb2Cr7Fva-104" target="c7yBR3n4T7XLjnJSdbYd-4">
            <mxGeometry x="-0.3343" y="31" width="100" relative="1" as="geometry">
              <mxPoint x="-13.000000000000057" y="13" as="sourcePoint" />
              <mxPoint x="135.99999999999994" y="-99" as="targetPoint" />
              <mxPoint as="offset" />
            </mxGeometry>
          </mxCell>
        </UserObject>
        <mxCell id="c7yBR3n4T7XLjnJSdbYd-53" value="ECS" style="points=[[0,0],[0.25,0],[0.5,0],[0.75,0],[1,0],[1,0.25],[1,0.5],[1,0.75],[1,1],[0.75,1],[0.5,1],[0.25,1],[0,1],[0,0.75],[0,0.5],[0,0.25]];outlineConnect=0;gradientColor=none;html=1;whiteSpace=wrap;fontSize=12;fontStyle=0;container=1;pointerEvents=0;collapsible=0;recursiveResize=0;shape=mxgraph.aws4.group;grIcon=mxgraph.aws4.group_aws_cloud_alt;strokeColor=#232F3E;fillColor=none;verticalAlign=top;align=left;spacingLeft=30;fontColor=#232F3E;dashed=0;" vertex="1" parent="nvhKP5HM8xwmb2Cr7Fva-1">
          <mxGeometry x="467" y="173" width="350" height="330" as="geometry" />
        </mxCell>
        <mxCell id="7A9sbMXcNeyiRrZDGs7s-1" value="" style="sketch=0;points=[[0,0,0],[0.25,0,0],[0.5,0,0],[0.75,0,0],[1,0,0],[0,1,0],[0.25,1,0],[0.5,1,0],[0.75,1,0],[1,1,0],[0,0.25,0],[0,0.5,0],[0,0.75,0],[1,0.25,0],[1,0.5,0],[1,0.75,0]];outlineConnect=0;fontColor=#232F3E;fillColor=#ED7100;strokeColor=#ffffff;dashed=0;verticalLabelPosition=bottom;verticalAlign=top;align=center;html=1;fontSize=12;fontStyle=0;aspect=fixed;shape=mxgraph.aws4.resourceIcon;resIcon=mxgraph.aws4.ecs;" vertex="1" parent="c7yBR3n4T7XLjnJSdbYd-53">
          <mxGeometry x="136" width="78" height="78" as="geometry" />
        </mxCell>
        <mxCell id="c7yBR3n4T7XLjnJSdbYd-1" value="" style="sketch=0;outlineConnect=0;fontColor=#232F3E;gradientColor=none;fillColor=#ED7100;strokeColor=none;dashed=0;verticalLabelPosition=bottom;verticalAlign=top;align=center;html=1;fontSize=12;fontStyle=0;aspect=fixed;pointerEvents=1;shape=mxgraph.aws4.ecs_task;" vertex="1" parent="c7yBR3n4T7XLjnJSdbYd-53">
          <mxGeometry x="23" y="121" width="57.04" height="74" as="geometry" />
        </mxCell>
        <mxCell id="c7yBR3n4T7XLjnJSdbYd-5" value="&lt;div style=&quot;text-align: center;&quot;&gt;&lt;font color=&quot;#232f3e&quot;&gt;&lt;span style=&quot;text-wrap: nowrap; background-color: rgb(255, 255, 255);&quot;&gt;csm task&lt;/span&gt;&lt;/font&gt;&lt;/div&gt;" style="text;whiteSpace=wrap;html=1;" vertex="1" parent="c7yBR3n4T7XLjnJSdbYd-53">
          <mxGeometry x="30" y="197" width="50" height="25" as="geometry" />
        </mxCell>
        <mxCell id="c7yBR3n4T7XLjnJSdbYd-6" value="" style="sketch=0;outlineConnect=0;fontColor=#232F3E;gradientColor=none;fillColor=#ED7100;strokeColor=none;dashed=0;verticalLabelPosition=bottom;verticalAlign=top;align=center;html=1;fontSize=12;fontStyle=0;aspect=fixed;pointerEvents=1;shape=mxgraph.aws4.ecs_task;" vertex="1" parent="c7yBR3n4T7XLjnJSdbYd-53">
          <mxGeometry x="151.51999999999998" y="123" width="57.04" height="74" as="geometry" />
        </mxCell>
        <mxCell id="c7yBR3n4T7XLjnJSdbYd-7" value="&lt;div style=&quot;text-align: center;&quot;&gt;&lt;font color=&quot;#232f3e&quot;&gt;&lt;span style=&quot;text-wrap: nowrap; background-color: rgb(255, 255, 255);&quot;&gt;esb task&lt;/span&gt;&lt;/font&gt;&lt;/div&gt;" style="text;whiteSpace=wrap;html=1;" vertex="1" parent="c7yBR3n4T7XLjnJSdbYd-53">
          <mxGeometry x="155.03999999999996" y="189.5" width="50" height="40" as="geometry" />
        </mxCell>
        <mxCell id="c7yBR3n4T7XLjnJSdbYd-9" value="&lt;div style=&quot;text-align: center;&quot;&gt;&lt;font color=&quot;#232f3e&quot;&gt;&lt;span style=&quot;text-wrap: nowrap; background-color: rgb(255, 255, 255);&quot;&gt;worker task&lt;/span&gt;&lt;/font&gt;&lt;/div&gt;" style="text;whiteSpace=wrap;html=1;" vertex="1" parent="c7yBR3n4T7XLjnJSdbYd-53">
          <mxGeometry x="151.52" y="307" width="50" height="40" as="geometry" />
        </mxCell>
        <mxCell id="c7yBR3n4T7XLjnJSdbYd-10" value="" style="sketch=0;outlineConnect=0;fontColor=#232F3E;gradientColor=none;fillColor=#ED7100;strokeColor=none;dashed=0;verticalLabelPosition=bottom;verticalAlign=top;align=center;html=1;fontSize=12;fontStyle=0;aspect=fixed;pointerEvents=1;shape=mxgraph.aws4.ecs_task;" vertex="1" parent="c7yBR3n4T7XLjnJSdbYd-53">
          <mxGeometry x="260" y="123" width="54.73" height="71" as="geometry" />
        </mxCell>
        <mxCell id="c7yBR3n4T7XLjnJSdbYd-11" value="&lt;div style=&quot;text-align: center;&quot;&gt;&lt;font color=&quot;#232f3e&quot;&gt;&lt;span style=&quot;text-wrap: nowrap; background-color: rgb(255, 255, 255);&quot;&gt;puppeteer task&lt;/span&gt;&lt;/font&gt;&lt;/div&gt;" style="text;whiteSpace=wrap;html=1;" vertex="1" parent="c7yBR3n4T7XLjnJSdbYd-53">
          <mxGeometry x="262.52" y="192" width="50" height="40" as="geometry" />
        </mxCell>
        <mxCell id="c7yBR3n4T7XLjnJSdbYd-54" value="" style="sketch=0;outlineConnect=0;fontColor=#232F3E;gradientColor=none;fillColor=#ED7100;strokeColor=none;dashed=0;verticalLabelPosition=bottom;verticalAlign=top;align=center;html=1;fontSize=12;fontStyle=0;aspect=fixed;pointerEvents=1;shape=mxgraph.aws4.ecs_task;" vertex="1" parent="c7yBR3n4T7XLjnJSdbYd-53">
          <mxGeometry x="151.52" y="235" width="57.04" height="74" as="geometry" />
        </mxCell>
        <mxCell id="c7yBR3n4T7XLjnJSdbYd-93" value="" style="edgeStyle=orthogonalEdgeStyle;html=1;endArrow=block;elbow=vertical;startArrow=none;endFill=1;strokeColor=#545B64;rounded=0;" edge="1" parent="c7yBR3n4T7XLjnJSdbYd-53">
          <mxGeometry width="100" relative="1" as="geometry">
            <mxPoint x="180" y="242" as="sourcePoint" />
            <mxPoint x="180" y="212" as="targetPoint" />
          </mxGeometry>
        </mxCell>
        <mxCell id="c7yBR3n4T7XLjnJSdbYd-94" value="" style="edgeStyle=orthogonalEdgeStyle;html=1;endArrow=none;elbow=vertical;startArrow=block;startFill=1;strokeColor=#545B64;rounded=0;" edge="1" parent="c7yBR3n4T7XLjnJSdbYd-53">
          <mxGeometry width="100" relative="1" as="geometry">
            <mxPoint x="210" y="162" as="sourcePoint" />
            <mxPoint x="260" y="162" as="targetPoint" />
          </mxGeometry>
        </mxCell>
        <mxCell id="c7yBR3n4T7XLjnJSdbYd-95" value="" style="shape=curlyBracket;whiteSpace=wrap;html=1;rounded=1;flipH=1;labelPosition=right;verticalLabelPosition=middle;align=left;verticalAlign=middle;rotation=-90;" vertex="1" parent="c7yBR3n4T7XLjnJSdbYd-53">
          <mxGeometry x="166.52" y="-32" width="20" height="248" as="geometry" />
        </mxCell>
        <mxCell id="nvhKP5HM8xwmb2Cr7Fva-91" value="3" style="rounded=1;whiteSpace=wrap;html=1;fillColor=#007CBD;strokeColor=none;fontColor=#FFFFFF;fontStyle=1;fontSize=22;labelBackgroundColor=none;" vertex="1" parent="c7yBR3n4T7XLjnJSdbYd-53">
          <mxGeometry x="96" y="12" width="40" height="38" as="geometry" />
        </mxCell>
        <mxCell id="1p68aLotlaid3wazq8v--7" value="" style="edgeStyle=orthogonalEdgeStyle;html=1;endArrow=block;elbow=vertical;startArrow=none;endFill=1;strokeColor=#545B64;rounded=0;" edge="1" parent="c7yBR3n4T7XLjnJSdbYd-53">
          <mxGeometry width="100" relative="1" as="geometry">
            <mxPoint x="350" y="229" as="sourcePoint" />
            <mxPoint x="440" y="229" as="targetPoint" />
          </mxGeometry>
        </mxCell>
        <mxCell id="c7yBR3n4T7XLjnJSdbYd-65" value="" style="edgeStyle=orthogonalEdgeStyle;html=1;endArrow=none;elbow=vertical;startArrow=openThin;startFill=0;strokeColor=#545B64;rounded=0;" edge="1" parent="nvhKP5HM8xwmb2Cr7Fva-1" target="c7yBR3n4T7XLjnJSdbYd-1">
          <mxGeometry width="100" relative="1" as="geometry">
            <mxPoint x="407" y="65" as="sourcePoint" />
            <mxPoint x="507" y="65" as="targetPoint" />
            <Array as="points">
              <mxPoint x="507" y="65" />
            </Array>
          </mxGeometry>
        </mxCell>
        <mxCell id="c7yBR3n4T7XLjnJSdbYd-75" value="" style="edgeStyle=orthogonalEdgeStyle;html=1;endArrow=block;elbow=vertical;startArrow=block;startFill=1;endFill=1;strokeColor=#545B64;rounded=0;exitX=0.5;exitY=1;exitDx=0;exitDy=0;entryX=0.006;entryY=0.817;entryDx=0;entryDy=0;entryPerimeter=0;" edge="1" parent="nvhKP5HM8xwmb2Cr7Fva-1" target="c7yBR3n4T7XLjnJSdbYd-1">
          <mxGeometry width="100" relative="1" as="geometry">
            <mxPoint x="322.5" y="360" as="sourcePoint" />
            <mxPoint x="507" y="415" as="targetPoint" />
            <Array as="points">
              <mxPoint x="323" y="355" />
            </Array>
          </mxGeometry>
        </mxCell>
        <UserObject label="&lt;span style=&quot;color: rgb(25, 25, 25); font-family: &amp;quot;Microsoft YaHei&amp;quot;; font-size: 18px; font-style: normal; font-variant-ligatures: normal; font-variant-caps: normal; font-weight: 400; letter-spacing: normal; orphans: 2; text-align: left; text-indent: 0px; text-transform: none; widows: 2; word-spacing: 0px; -webkit-text-stroke-width: 0px; white-space: pre-wrap; background-color: rgb(251, 251, 251); text-decoration-thickness: initial; text-decoration-style: initial; text-decoration-color: initial; display: inline !important; float: none;&quot;&gt;https://csm.activate.dev&lt;/span&gt;" link="&lt;span style=&quot;color: rgb(25, 25, 25); font-family: &amp;quot;Microsoft YaHei&amp;quot;; font-size: 18px; font-style: normal; font-variant-ligatures: normal; font-variant-caps: normal; font-weight: 400; letter-spacing: normal; orphans: 2; text-align: left; text-indent: 0px; text-transform: none; widows: 2; word-spacing: 0px; -webkit-text-stroke-width: 0px; white-space: pre-wrap; background-color: rgb(251, 251, 251); text-decoration-thickness: initial; text-decoration-style: initial; text-decoration-color: initial; display: inline !important; float: none;&quot;&gt;https://m.activate.dev&lt;/span&gt;" id="c7yBR3n4T7XLjnJSdbYd-76">
          <mxCell style="text;whiteSpace=wrap;html=1;" vertex="1" parent="nvhKP5HM8xwmb2Cr7Fva-1">
            <mxGeometry x="317" y="360" width="190" height="50" as="geometry" />
          </mxCell>
        </UserObject>
        <mxCell id="c7yBR3n4T7XLjnJSdbYd-96" value="" style="outlineConnect=0;dashed=0;verticalLabelPosition=bottom;verticalAlign=top;align=center;html=1;shape=mxgraph.aws3.ses;fillColor=#D9A741;gradientColor=none;" vertex="1" parent="nvhKP5HM8xwmb2Cr7Fva-1">
          <mxGeometry x="617" y="25" width="73" height="75.5" as="geometry" />
        </mxCell>
        <mxCell id="wa8ynL8fI9HxT8jH8f1H-2" value="" style="edgeStyle=none;rounded=0;orthogonalLoop=1;jettySize=auto;html=1;" edge="1" parent="nvhKP5HM8xwmb2Cr7Fva-1" source="xPJT9Stf68ofQnfXHzNw-1" target="xPJT9Stf68ofQnfXHzNw-3">
          <mxGeometry relative="1" as="geometry" />
        </mxCell>
        <mxCell id="wa8ynL8fI9HxT8jH8f1H-3" value="" style="edgeStyle=none;rounded=0;orthogonalLoop=1;jettySize=auto;html=1;" edge="1" parent="nvhKP5HM8xwmb2Cr7Fva-1" source="xPJT9Stf68ofQnfXHzNw-1" target="xPJT9Stf68ofQnfXHzNw-3">
          <mxGeometry relative="1" as="geometry" />
        </mxCell>
        <mxCell id="wa8ynL8fI9HxT8jH8f1H-4" value="" style="edgeStyle=none;rounded=0;orthogonalLoop=1;jettySize=auto;html=1;" edge="1" parent="nvhKP5HM8xwmb2Cr7Fva-1" source="xPJT9Stf68ofQnfXHzNw-1" target="xPJT9Stf68ofQnfXHzNw-3">
          <mxGeometry relative="1" as="geometry" />
        </mxCell>
        <mxCell id="xPJT9Stf68ofQnfXHzNw-1" value="Amazon&lt;br&gt;DocumentDB" style="outlineConnect=0;fontColor=#232F3E;gradientColor=#4D72F3;gradientDirection=north;fillColor=#3334B9;strokeColor=#ffffff;dashed=0;verticalLabelPosition=bottom;verticalAlign=top;align=center;html=1;fontSize=12;fontStyle=0;aspect=fixed;shape=mxgraph.aws4.resourceIcon;resIcon=mxgraph.aws4.dynamodb;labelBackgroundColor=#ffffff;spacingTop=5;" vertex="1" parent="nvhKP5HM8xwmb2Cr7Fva-1">
          <mxGeometry x="907" y="230" width="85" height="85" as="geometry" />
        </mxCell>
        <mxCell id="xPJT9Stf68ofQnfXHzNw-3" value="Amazon&lt;br&gt;CloudWatch&lt;br&gt;" style="outlineConnect=0;fontColor=#232F3E;gradientColor=#F34482;gradientDirection=north;fillColor=#BC1356;strokeColor=#ffffff;dashed=0;verticalLabelPosition=bottom;verticalAlign=top;align=center;html=1;fontSize=12;fontStyle=0;aspect=fixed;shape=mxgraph.aws4.resourceIcon;resIcon=mxgraph.aws4.cloudwatch;labelBackgroundColor=#ffffff;" vertex="1" parent="nvhKP5HM8xwmb2Cr7Fva-1">
          <mxGeometry x="906.0000000000002" y="362" width="78" height="78" as="geometry" />
        </mxCell>
        <mxCell id="pndnJOXuF24JS8JKWzcY-1" value="IAM Roles" style="outlineConnect=0;fontColor=#232F3E;gradientColor=none;fillColor=#C7131F;strokeColor=none;dashed=0;verticalLabelPosition=bottom;verticalAlign=top;align=center;html=1;fontSize=12;fontStyle=0;aspect=fixed;pointerEvents=1;shape=mxgraph.aws4.role;labelBackgroundColor=#ffffff;" vertex="1" parent="nvhKP5HM8xwmb2Cr7Fva-1">
          <mxGeometry x="11.000000000000227" y="115" width="78" height="44" as="geometry" />
        </mxCell>
        <mxCell id="pndnJOXuF24JS8JKWzcY-2" value="Amazon&lt;br&gt;CloudWatch Logs&lt;br&gt;" style="outlineConnect=0;fontColor=#232F3E;gradientColor=none;gradientDirection=north;fillColor=#F34482;strokeColor=none;dashed=0;verticalLabelPosition=bottom;verticalAlign=top;align=center;html=1;fontSize=12;fontStyle=0;aspect=fixed;shape=mxgraph.aws4.cloudwatch;labelBackgroundColor=#ffffff;" vertex="1" parent="nvhKP5HM8xwmb2Cr7Fva-1">
          <mxGeometry x="903.0000000000002" y="482" width="78" height="78" as="geometry" />
        </mxCell>
        <mxCell id="pndnJOXuF24JS8JKWzcY-4" value="" style="outlineConnect=0;dashed=0;verticalLabelPosition=bottom;verticalAlign=top;align=center;html=1;shape=mxgraph.aws3.virtual_private_cloud;fillColor=#F58534;gradientColor=none;" vertex="1" parent="nvhKP5HM8xwmb2Cr7Fva-1">
          <mxGeometry x="11" y="35.75" width="79.5" height="54" as="geometry" />
        </mxCell>
        <mxCell id="OcN_Lp90Ig2VBt2PdGqW-1" style="edgeStyle=orthogonalEdgeStyle;rounded=0;orthogonalLoop=1;jettySize=auto;html=1;startArrow=open;startFill=0;endArrow=open;endFill=0;strokeWidth=2;strokeColor=#808080;" edge="1" parent="nvhKP5HM8xwmb2Cr7Fva-1">
          <mxGeometry relative="1" as="geometry">
            <Array as="points">
              <mxPoint x="867" y="355" />
              <mxPoint x="867" y="263" />
            </Array>
            <mxPoint x="816.999112850026" y="355" as="sourcePoint" />
            <mxPoint x="897" y="263" as="targetPoint" />
          </mxGeometry>
        </mxCell>
        <mxCell id="1p68aLotlaid3wazq8v--1" value="5" style="rounded=1;whiteSpace=wrap;html=1;fillColor=#007CBD;strokeColor=none;fontColor=#FFFFFF;fontStyle=1;fontSize=22;labelBackgroundColor=none;" vertex="1" parent="nvhKP5HM8xwmb2Cr7Fva-1">
          <mxGeometry x="867" y="212" width="40" height="38" as="geometry" />
        </mxCell>
        <mxCell id="vIbLw6qgS7vREDe--TYZ-4" value="&lt;span style=&quot;background-color: rgb(255, 255, 255);&quot;&gt;MongoDB Atlas&lt;/span&gt;" style="sketch=0;points=[[0,0,0],[0.25,0,0],[0.5,0,0],[0.75,0,0],[1,0,0],[0,1,0],[0.25,1,0],[0.5,1,0],[0.75,1,0],[1,1,0],[0,0.25,0],[0,0.5,0],[0,0.75,0],[1,0.25,0],[1,0.5,0],[1,0.75,0]];outlineConnect=0;fontColor=#232F3E;fillColor=#C925D1;strokeColor=#ffffff;dashed=0;verticalLabelPosition=bottom;verticalAlign=top;align=center;html=1;fontSize=12;fontStyle=0;aspect=fixed;shape=mxgraph.aws4.resourceIcon;resIcon=mxgraph.aws4.database;" vertex="1" parent="nvhKP5HM8xwmb2Cr7Fva-1">
          <mxGeometry x="906" y="35.75" width="78" height="78" as="geometry" />
        </mxCell>
        <mxCell id="1p68aLotlaid3wazq8v--8" value="" style="edgeStyle=orthogonalEdgeStyle;html=1;endArrow=block;elbow=vertical;startArrow=none;endFill=1;strokeColor=#545B64;rounded=0;" edge="1" parent="nvhKP5HM8xwmb2Cr7Fva-1" target="pndnJOXuF24JS8JKWzcY-2">
          <mxGeometry width="100" relative="1" as="geometry">
            <mxPoint x="817" y="472" as="sourcePoint" />
            <mxPoint x="917" y="472" as="targetPoint" />
            <Array as="points">
              <mxPoint x="897" y="473" />
              <mxPoint x="897" y="521" />
            </Array>
          </mxGeometry>
        </mxCell>
        <mxCell id="1p68aLotlaid3wazq8v--9" style="edgeStyle=orthogonalEdgeStyle;rounded=0;orthogonalLoop=1;jettySize=auto;html=1;startArrow=open;startFill=0;endArrow=open;endFill=0;strokeWidth=2;strokeColor=#808080;" edge="1" parent="nvhKP5HM8xwmb2Cr7Fva-1">
          <mxGeometry relative="1" as="geometry">
            <Array as="points">
              <mxPoint x="877" y="193" />
              <mxPoint x="877" y="101" />
            </Array>
            <mxPoint x="817" y="192" as="sourcePoint" />
            <mxPoint x="907" y="100.5" as="targetPoint" />
          </mxGeometry>
        </mxCell>
        <mxCell id="1p68aLotlaid3wazq8v--10" value="" style="fillColor=none;strokeColor=#5A6C86;dashed=1;verticalAlign=top;fontStyle=0;fontColor=#5A6C86;whiteSpace=wrap;html=1;" vertex="1" parent="nvhKP5HM8xwmb2Cr7Fva-1">
          <mxGeometry x="880" y="10" width="117" height="129.75" as="geometry" />
        </mxCell>
        <mxCell id="nvhKP5HM8xwmb2Cr7Fva-33" value="1" style="rounded=1;whiteSpace=wrap;html=1;fillColor=#007CBD;strokeColor=none;fontColor=#FFFFFF;fontStyle=1;fontSize=22;labelBackgroundColor=none;" vertex="1" parent="1">
          <mxGeometry x="341.5" y="230.5" width="40" height="38" as="geometry" />
        </mxCell>
        <mxCell id="nvhKP5HM8xwmb2Cr7Fva-34" value="2" style="rounded=1;whiteSpace=wrap;html=1;fillColor=#007CBD;strokeColor=none;fontColor=#FFFFFF;fontStyle=1;fontSize=22;labelBackgroundColor=none;" vertex="1" parent="1">
          <mxGeometry x="341.5" y="318" width="40" height="38" as="geometry" />
        </mxCell>
        <mxCell id="nvhKP5HM8xwmb2Cr7Fva-35" value="3" style="rounded=1;whiteSpace=wrap;html=1;fillColor=#007CBD;strokeColor=none;fontColor=#FFFFFF;fontStyle=1;fontSize=22;labelBackgroundColor=none;" vertex="1" parent="1">
          <mxGeometry x="340" y="408" width="40" height="38" as="geometry" />
        </mxCell>
        <mxCell id="nvhKP5HM8xwmb2Cr7Fva-36" value="4" style="rounded=1;whiteSpace=wrap;html=1;fillColor=#007CBD;strokeColor=none;fontColor=#FFFFFF;fontStyle=1;fontSize=22;labelBackgroundColor=none;" vertex="1" parent="1">
          <mxGeometry x="340" y="510.5" width="40" height="38" as="geometry" />
        </mxCell>
        <mxCell id="nvhKP5HM8xwmb2Cr7Fva-37" value="5" style="rounded=1;whiteSpace=wrap;html=1;fillColor=#007CBD;strokeColor=none;fontColor=#FFFFFF;fontStyle=1;fontSize=22;labelBackgroundColor=none;" vertex="1" parent="1">
          <mxGeometry x="341.5" y="573.5" width="40" height="38" as="geometry" />
        </mxCell>
        <mxCell id="nvhKP5HM8xwmb2Cr7Fva-42" value="Activate" style="text;html=1;resizable=0;points=[];autosize=1;align=left;verticalAlign=top;spacingTop=-4;fontSize=30;fontStyle=1;labelBackgroundColor=none;" vertex="1" parent="1">
          <mxGeometry x="-850" y="12.5" width="130" height="40" as="geometry" />
        </mxCell>
        <mxCell id="nvhKP5HM8xwmb2Cr7Fva-44" value="" style="line;strokeWidth=2;html=1;fontSize=14;labelBackgroundColor=none;" vertex="1" parent="1">
          <mxGeometry x="-850" y="64.5" width="1060" height="10" as="geometry" />
        </mxCell>
        <mxCell id="nvhKP5HM8xwmb2Cr7Fva-45" value="&lt;p style=&quot;white-space-collapse: preserve; margin: 0px;&quot;&gt;&lt;span style=&quot;color: rgb(22, 25, 31); font-family: &amp;quot;Amazon Ember&amp;quot;, Helvetica, Arial, sans-serif; font-size: 16px; white-space-collapse: collapse; background-color: rgb(255, 255, 255);&quot;&gt;Amazon Route&amp;nbsp;53 is a highly available and scalable Domain Name System (DNS) web service. You can use Route&amp;nbsp;53 to perform three main functions in any combination: domain registration, DNS routing, and health checking.&lt;/span&gt;&lt;br&gt;&lt;/p&gt;" style="text;html=1;align=left;verticalAlign=top;spacingTop=-4;fontSize=14;labelBackgroundColor=none;whiteSpace=wrap;" vertex="1" parent="1">
          <mxGeometry x="393" y="230" width="449" height="118" as="geometry" />
        </mxCell>
        <mxCell id="nvhKP5HM8xwmb2Cr7Fva-47" value="&lt;span style=&quot;color: rgb(51, 51, 51); font-family: Helvetica, arial, freesans, clean, sans-serif; background-color: rgb(255, 255, 255);&quot;&gt;&lt;font style=&quot;font-size: 16px;&quot;&gt;Amazon Elastic Container Service (Amazon ECS) is a highly scalable, fast, container management service. It makes it easy to run, stop, and manage Docker containers. You can host your cluster on a serverless infrastructure that&#39;s managed by Amazon ECS by launching your services or tasks on Fargate.&lt;/font&gt;&lt;/span&gt;" style="text;html=1;align=left;verticalAlign=top;spacingTop=-4;fontSize=14;labelBackgroundColor=none;whiteSpace=wrap;" vertex="1" parent="1">
          <mxGeometry x="387.25" y="408" width="450" height="117" as="geometry" />
        </mxCell>
        <mxCell id="nvhKP5HM8xwmb2Cr7Fva-48" value="&lt;span style=&quot;color: rgb(22, 25, 31); font-family: &amp;quot;Amazon Ember&amp;quot;, Helvetica, Arial, sans-serif; font-size: 16px; background-color: rgb(242, 243, 243);&quot;&gt;Use Amazon S3 to store and retrieve any amount of data using highly scalable, reliable, fast, and inexpensive data storage.&lt;/span&gt;" style="text;html=1;align=left;verticalAlign=top;spacingTop=-4;fontSize=14;labelBackgroundColor=none;whiteSpace=wrap;" vertex="1" parent="1">
          <mxGeometry x="387.25" y="518" width="450" height="50" as="geometry" />
        </mxCell>
        <mxCell id="nvhKP5HM8xwmb2Cr7Fva-49" value="&lt;span style=&quot;color: rgb(22, 25, 31); font-family: &amp;quot;Amazon Ember&amp;quot;, Helvetica, Arial, sans-serif; background-color: rgb(255, 255, 255);&quot;&gt;&lt;font style=&quot;font-size: 16px;&quot;&gt;Amazon DocumentDB (with MongoDB compatibility) is a fast, reliable, and fully managed database service.&amp;nbsp;&lt;/font&gt;&lt;/span&gt;&lt;div&gt;&lt;font size=&quot;3&quot; face=&quot;Amazon Ember, Helvetica, Arial, sans-serif&quot; color=&quot;#16191f&quot;&gt;&lt;span style=&quot;background-color: rgb(255, 255, 255);&quot;&gt;Only the production environment uses Amazon DocumentDB, and the rest uses MongoDB atlas&lt;/span&gt;&lt;/font&gt;&lt;br&gt;&lt;/div&gt;" style="text;html=1;align=left;verticalAlign=top;spacingTop=-4;fontSize=14;labelBackgroundColor=none;whiteSpace=wrap;" vertex="1" parent="1">
          <mxGeometry x="387.25" y="573.5" width="449" height="114" as="geometry" />
        </mxCell>
        <mxCell id="nvhKP5HM8xwmb2Cr7Fva-57" value="Channels" style="swimlane;fontSize=14;align=center;swimlaneFillColor=#f4f4f4;fillColor=#f4f4f4;startSize=33;container=1;pointerEvents=0;collapsible=0;recursiveResize=0;" vertex="1" parent="1">
          <mxGeometry x="-830" y="233" width="120" height="454.5" as="geometry" />
        </mxCell>
        <mxCell id="n6OkfpM4ppHcxT8dJHTf-1" value="CMS" style="outlineConnect=0;gradientColor=none;fontColor=#545B64;strokeColor=none;fillColor=#879196;dashed=0;verticalLabelPosition=bottom;verticalAlign=top;align=center;html=1;fontSize=12;fontStyle=0;aspect=fixed;shape=mxgraph.aws4.illustration_desktop;pointerEvents=1;labelBackgroundColor=#ffffff;" vertex="1" parent="nvhKP5HM8xwmb2Cr7Fva-57">
          <mxGeometry x="10" y="337.5" width="100" height="91" as="geometry" />
        </mxCell>
        <mxCell id="mFfnFaYDSQrFarNhjZhR-1" value="mobile" style="outlineConnect=0;gradientColor=none;fontColor=#545B64;strokeColor=none;fillColor=#879196;dashed=0;verticalLabelPosition=bottom;verticalAlign=top;align=center;html=1;fontSize=12;fontStyle=0;aspect=fixed;shape=mxgraph.aws4.illustration_notification;pointerEvents=1;labelBackgroundColor=#ffffff;" vertex="1" parent="nvhKP5HM8xwmb2Cr7Fva-57">
          <mxGeometry x="10" y="118" width="100" height="81" as="geometry" />
        </mxCell>
        <mxCell id="nvhKP5HM8xwmb2Cr7Fva-110" value="" style="group" vertex="1" connectable="0" parent="1">
          <mxGeometry x="-707.5" y="367.5" width="21" height="26" as="geometry" />
        </mxCell>
        <mxCell id="nvhKP5HM8xwmb2Cr7Fva-111" value="" style="rounded=0;whiteSpace=wrap;html=1;labelBackgroundColor=#ffffff;fontSize=14;align=center;strokeColor=none;" vertex="1" parent="nvhKP5HM8xwmb2Cr7Fva-110">
          <mxGeometry width="21" height="26" as="geometry" />
        </mxCell>
        <mxCell id="nvhKP5HM8xwmb2Cr7Fva-112" value="" style="outlineConnect=0;fontColor=#232F3E;gradientColor=none;fillColor=#B3B3B3;strokeColor=none;dashed=0;verticalLabelPosition=bottom;verticalAlign=top;align=center;html=1;fontSize=12;fontStyle=0;aspect=fixed;pointerEvents=1;shape=mxgraph.aws4.encrypted_data;labelBackgroundColor=#ffffff;" vertex="1" parent="nvhKP5HM8xwmb2Cr7Fva-110">
          <mxGeometry width="21" height="26" as="geometry" />
        </mxCell>
        <mxCell id="c7yBR3n4T7XLjnJSdbYd-66" value="&lt;span style=&quot;color: rgb(13, 26, 38); font-family: &amp;quot;Amazon Ember&amp;quot;, sans-serif; font-size: 16px; background-color: rgb(255, 255, 255);&quot;&gt;AWS Amplify is a collection of cloud services and libraries for fullstack application development. Amplify provides frontend libraries, UI components, backend building, and frontend hosting for building fullstack cloud apps.&lt;/span&gt;" style="text;html=1;align=left;verticalAlign=top;spacingTop=-4;fontSize=14;labelBackgroundColor=none;whiteSpace=wrap;" vertex="1" parent="1">
          <mxGeometry x="387.25" y="318" width="450" height="90" as="geometry" />
        </mxCell>
        <mxCell id="c7yBR3n4T7XLjnJSdbYd-97" value="&lt;span style=&quot;color: rgb(35, 47, 62);&quot;&gt;Amazon SES&lt;/span&gt;" style="text;html=1;align=center;verticalAlign=middle;resizable=0;points=[];autosize=1;strokeColor=none;fillColor=none;" vertex="1" parent="1">
          <mxGeometry x="-75" y="181" width="90" height="30" as="geometry" />
        </mxCell>
        <mxCell id="i4lFZitDBc-_XitTyaKs-4" style="edgeStyle=none;rounded=0;orthogonalLoop=1;jettySize=auto;html=1;exitX=0.5;exitY=0;exitDx=0;exitDy=0;" edge="1" parent="1" source="c7yBR3n4T7XLjnJSdbYd-53" target="c7yBR3n4T7XLjnJSdbYd-97">
          <mxGeometry relative="1" as="geometry" />
        </mxCell>
        <UserObject label="&lt;p style=&quot;forced-color-adjust: none; white-space-collapse: preserve; margin: 0px; line-height: 1px;&quot;&gt;&lt;span style=&quot;forced-color-adjust: none; font-family: &amp;quot;Microsoft YaHei&amp;quot;; color: rgb(25, 25, 25);&quot;&gt;&lt;font style=&quot;forced-color-adjust: none; font-size: 18px;&quot;&gt;&lt;br style=&quot;forced-color-adjust: none;&quot; class=&quot;Apple-interchange-newline&quot;&gt;&lt;br style=&quot;forced-color-adjust: none;&quot;&gt;&lt;/font&gt;&lt;/span&gt;&lt;/p&gt;&lt;p style=&quot;forced-color-adjust: none; white-space-collapse: preserve; margin: 0px; line-height: 1px;&quot;&gt;&lt;span style=&quot;forced-color-adjust: none; font-family: &amp;quot;Microsoft YaHei&amp;quot;; color: rgb(25, 25, 25);&quot;&gt;&lt;font style=&quot;forced-color-adjust: none; font-size: 18px;&quot;&gt;&lt;br style=&quot;forced-color-adjust: none;&quot;&gt;&lt;/font&gt;&lt;/span&gt;&lt;/p&gt;&lt;p style=&quot;forced-color-adjust: none; white-space-collapse: preserve; margin: 0px; line-height: 1px;&quot;&gt;&lt;span style=&quot;forced-color-adjust: none; font-family: &amp;quot;Microsoft YaHei&amp;quot;; color: rgb(25, 25, 25);&quot;&gt;&lt;font style=&quot;forced-color-adjust: none; font-size: 18px;&quot;&gt;&lt;br style=&quot;forced-color-adjust: none;&quot;&gt;&lt;/font&gt;&lt;/span&gt;&lt;/p&gt;&lt;p style=&quot;forced-color-adjust: none; white-space-collapse: preserve; margin: 0px; line-height: 1px;&quot;&gt;&lt;span style=&quot;forced-color-adjust: none; font-family: &amp;quot;Microsoft YaHei&amp;quot;; color: rgb(25, 25, 25);&quot;&gt;&lt;font style=&quot;forced-color-adjust: none; font-size: 18px;&quot;&gt;&lt;br style=&quot;forced-color-adjust: none;&quot;&gt;&lt;/font&gt;&lt;/span&gt;&lt;/p&gt;&lt;p style=&quot;forced-color-adjust: none; white-space-collapse: preserve; margin: 0px; line-height: 1px;&quot;&gt;&lt;span style=&quot;forced-color-adjust: none; font-family: &amp;quot;Microsoft YaHei&amp;quot;; color: rgb(25, 25, 25);&quot;&gt;&lt;font style=&quot;forced-color-adjust: none; font-size: 18px;&quot;&gt;https://m.activate.dev&lt;/font&gt;&lt;/span&gt;&lt;/p&gt;&lt;p style=&quot;forced-color-adjust: none; white-space-collapse: preserve; margin: 0px; line-height: 16px; font-family: &amp;quot;Microsoft YaHei&amp;quot;; font-size: 12pt;&quot;&gt;&lt;br style=&quot;forced-color-adjust: none; color: rgb(0, 0, 0); font-family: &amp;quot;Microsoft YaHei&amp;quot;; font-size: 16px; font-style: normal; font-variant-ligatures: normal; font-variant-caps: normal; font-weight: 400; letter-spacing: normal; orphans: 2; text-indent: 0px; text-transform: none; widows: 2; word-spacing: 0px; -webkit-text-stroke-width: 0px; white-space: pre-wrap; text-decoration-thickness: initial; text-decoration-style: initial; text-decoration-color: initial; text-align: left; background-color: rgb(251, 251, 251);&quot;&gt;&lt;/p&gt;" link="&lt;meta charset=&quot;utf-8&quot;&gt;&lt;p style=&quot;forced-color-adjust: none; white-space-collapse: preserve; margin: 0px; line-height: 1px;&quot;&gt;&lt;span style=&quot;forced-color-adjust: none; font-family: &amp;quot;Microsoft YaHei&amp;quot;; color: rgb(25, 25, 25);&quot;&gt;&lt;font style=&quot;forced-color-adjust: none; font-size: 18px;&quot;&gt;&lt;br style=&quot;forced-color-adjust: none;&quot; class=&quot;Apple-interchange-newline&quot;&gt;&lt;br style=&quot;forced-color-adjust: none;&quot;&gt;&lt;/font&gt;&lt;/span&gt;&lt;/p&gt;&lt;p style=&quot;forced-color-adjust: none; white-space-collapse: preserve; margin: 0px; line-height: 1px;&quot;&gt;&lt;span style=&quot;forced-color-adjust: none; font-family: &amp;quot;Microsoft YaHei&amp;quot;; color: rgb(25, 25, 25);&quot;&gt;&lt;font style=&quot;forced-color-adjust: none; font-size: 18px;&quot;&gt;&lt;br style=&quot;forced-color-adjust: none;&quot;&gt;&lt;/font&gt;&lt;/span&gt;&lt;/p&gt;&lt;p style=&quot;forced-color-adjust: none; white-space-collapse: preserve; margin: 0px; line-height: 1px;&quot;&gt;&lt;span style=&quot;forced-color-adjust: none; font-family: &amp;quot;Microsoft YaHei&amp;quot;; color: rgb(25, 25, 25);&quot;&gt;&lt;font style=&quot;forced-color-adjust: none; font-size: 18px;&quot;&gt;&lt;br style=&quot;forced-color-adjust: none;&quot;&gt;&lt;/font&gt;&lt;/span&gt;&lt;/p&gt;&lt;p style=&quot;forced-color-adjust: none; white-space-collapse: preserve; margin: 0px; line-height: 1px;&quot;&gt;&lt;span style=&quot;forced-color-adjust: none; font-family: &amp;quot;Microsoft YaHei&amp;quot;; color: rgb(25, 25, 25);&quot;&gt;&lt;font style=&quot;forced-color-adjust: none; font-size: 18px;&quot;&gt;&lt;br style=&quot;forced-color-adjust: none;&quot;&gt;&lt;/font&gt;&lt;/span&gt;&lt;/p&gt;&lt;p style=&quot;forced-color-adjust: none; white-space-collapse: preserve; margin: 0px; line-height: 1px;&quot;&gt;&lt;span style=&quot;forced-color-adjust: none; font-family: &amp;quot;Microsoft YaHei&amp;quot;; color: rgb(25, 25, 25);&quot;&gt;&lt;font style=&quot;forced-color-adjust: none; font-size: 18px;&quot;&gt;https://portal.activate.dev&lt;/font&gt;&lt;/span&gt;&lt;/p&gt;&lt;p style=&quot;forced-color-adjust: none; white-space-collapse: preserve; margin: 0px; line-height: 16px; font-family: &amp;quot;Microsoft YaHei&amp;quot;; font-size: 12pt;&quot;&gt;&lt;br style=&quot;forced-color-adjust: none; color: rgb(0, 0, 0); font-family: &amp;quot;Microsoft YaHei&amp;quot;; font-size: 16px; font-style: normal; font-variant-ligatures: normal; font-variant-caps: normal; font-weight: 400; letter-spacing: normal; orphans: 2; text-indent: 0px; text-transform: none; widows: 2; word-spacing: 0px; -webkit-text-stroke-width: 0px; white-space: pre-wrap; text-decoration-thickness: initial; text-decoration-style: initial; text-decoration-color: initial; text-align: left; background-color: rgb(251, 251, 251);&quot;&gt;&lt;/p&gt;" id="wa8ynL8fI9HxT8jH8f1H-7">
          <mxCell style="edgeStyle=orthogonalEdgeStyle;html=1;endArrow=block;elbow=vertical;startArrow=block;startFill=1;endFill=1;strokeColor=#545B64;rounded=0;entryX=0;entryY=0.5;entryDx=0;entryDy=0;entryPerimeter=0;" edge="1" parent="1" target="2ERiE-DVfAWmRAEf4H8A-1">
            <mxGeometry x="0.0161" y="19" width="100" relative="1" as="geometry">
              <mxPoint x="-730" y="383" as="sourcePoint" />
              <mxPoint x="-630" y="383" as="targetPoint" />
              <mxPoint as="offset" />
            </mxGeometry>
          </mxCell>
        </UserObject>
      </root>
    </mxGraphModel>
  </diagram>
</mxfile>
